<svg width="19" height="17" viewBox="0 0 19 17" fill="none" xmlns="http://www.w3.org/2000/svg">
<path d="M17.0194 0.881336L16.2835 0.145393C16.0755 -0.0625975 15.6915 -0.0305884 15.4515 0.257357L12.8913 2.80132C11.7392 2.30538 10.4753 2.06538 9.14728 2.06538C5.19516 2.08132 1.77138 4.38529 0.123267 7.69749C0.0272397 7.90549 0.0272397 8.16142 0.123267 8.3374C0.8912 9.90543 2.04327 11.2015 3.48327 12.1774L1.38728 14.3054C1.14728 14.5454 1.11527 14.9293 1.27532 15.1374L2.01126 15.8733C2.21925 16.0813 2.60324 16.0493 2.84324 15.7613L16.8911 1.71345C17.1952 1.47358 17.2272 1.08962 17.0192 0.881611L17.0194 0.881336ZM9.99527 5.71322C9.72326 5.6492 9.43532 5.56925 9.16329 5.56925C7.80325 5.56925 6.71536 6.65727 6.71536 8.01718C6.71536 8.28919 6.77938 8.57714 6.85933 8.84916L5.78722 9.90519C5.46726 9.34524 5.29127 8.72114 5.29127 8.01722C5.29127 5.88924 7.0033 4.17722 9.13128 4.17722C9.83534 4.17722 10.4593 4.3532 11.0193 4.67316L9.99527 5.71322Z" fill="#666666" fill-opacity="0.8"/>
<path d="M18.1714 7.69743C17.6114 6.57738 16.8754 5.56945 15.9635 4.75342L12.9874 7.69743V8.01738C12.9874 10.1454 11.2754 11.8574 9.14741 11.8574H8.82746L6.93948 13.7454C7.64354 13.8893 8.37948 13.9854 9.09948 13.9854C13.0516 13.9854 16.4754 11.6814 18.1235 8.35325C18.2675 8.12918 18.2675 7.90527 18.1715 7.69726L18.1714 7.69743Z" fill="#666666" fill-opacity="0.8"/>
</svg>
